<?xml version="1.0" encoding="UTF-8"?>
<svg id="Layer_1" data-name="Layer 1" xmlns="http://www.w3.org/2000/svg" viewBox="0 0 1780.21 419.62">
  <defs>
    <style>
      .cls-1 {
        fill: #309afd;
      }

      .cls-2 {
        fill: #b4b4b5;
      }
    </style>
  </defs>
  <g>
    <path class="cls-1" d="M165.48,78.42c15.46,0,29.42,3.59,41.88,10.77,12.45,7.18,22.12,17.43,28.99,30.74,6.87,13.32,10.31,28.81,10.31,46.48,0,23.07-6.2,45.96-18.59,68.66-12.4,22.7-27.55,39.82-45.46,51.36-17.92,11.54-37.8,17.3-59.64,17.3-25.16,0-45.5-7.85-61.02-23.56-15.52-15.71-23.28-36.38-23.28-62.03s6.2-48.25,18.59-71.14c12.39-22.88,27.61-40.03,45.65-51.45,18.04-11.41,38.9-17.12,62.58-17.12Zm-13.44,13.25c-14.24,0-27.33,4.21-39.3,12.62-11.96,8.42-21.75,21.56-29.36,39.43-7.61,17.87-11.41,38.6-11.41,62.18,0,27.02,5.95,47.87,17.85,62.55,11.9,14.68,26.75,22.02,44.54,22.02,13.25,0,25.8-4.36,37.64-13.08,11.84-8.72,21.6-22.45,29.27-41.18,7.67-18.73,11.5-40.26,11.5-64.58s-5.86-44.8-17.58-58.86c-11.72-14.06-26.11-21.1-43.16-21.1Z"/>
    <path class="cls-1" d="M359.3,258.81l3.87,10.68c-29.21,22.95-53.87,34.42-74,34.42-10.68,0-18.44-3.81-23.28-11.41-4.85-7.61-7.27-17.24-7.27-28.9,0-19.39,5.15-39.33,15.46-59.82,10.31-20.49,22.82-36.2,37.55-47.12,11.53-8.47,24.54-12.7,39.02-12.7,9.08,0,15.95,1.72,20.62,5.15,4.66,3.44,6.99,7.61,6.99,12.52,0,3.8-1.23,6.9-3.68,9.3-2.46,2.39-5.89,3.59-10.31,3.59s-9.82-1.96-16.57-5.89c-6.99-4.17-12.82-6.26-17.49-6.26-6.01,0-12,2.73-17.95,8.18-5.95,5.45-11.63,16.02-17.03,31.7-5.4,15.69-8.1,31.43-8.1,47.23,0,11.64,2.27,20.65,6.81,27.02,3.31,4.9,7.98,7.35,13.99,7.35,14.36,0,31.48-8.34,51.35-25.03Z"/>
    <path class="cls-1" d="M482.81,252.55l6.07,8.1c-30.07,28.59-55.84,42.89-77.31,42.89-8.71,0-15.37-2.95-19.97-8.84-4.6-5.89-6.9-15.34-6.9-28.35,0-26.26,7.98-52.4,23.93-78.41,17.92-29.57,39.33-44.36,64.24-44.36,8.71,0,15.37,2.18,19.97,6.53,4.6,4.36,6.9,10.34,6.9,17.95s-2.76,15.83-8.28,23.56c-5.52,7.73-15.4,15.77-29.63,24.11-7.12,4.05-22.34,11.35-45.65,21.9-1.1,6.63-1.66,12.95-1.66,18.96,0,8.71,1.38,14.79,4.14,18.22,2.76,3.44,6.78,5.15,12.06,5.15s10.55-1.41,16.57-4.23c8.1-3.8,19.94-11.53,35.53-23.19Zm-64.42-26.69c19.76-8.84,34.6-18.34,44.54-28.53,6.75-7.12,10.12-14.17,10.12-21.17,0-5.27-1.38-9.48-4.14-12.61-2.76-3.13-6.35-4.69-10.77-4.69s-8.96,1.72-13.25,5.15c-5.77,4.54-10.62,11.41-14.54,20.62-5.65,13.5-9.64,27.24-11.96,41.23Z"/>
    <path class="cls-1" d="M640.01,140.82l12.15-2.58-13.81,46.57c-5.52,18.53-10.74,39.88-15.64,64.06-2.7,13.13-4.05,21.6-4.05,25.4s1.53,5.71,4.6,5.71c1.96,0,5.09-1.29,9.39-3.87,7.61-4.54,14.91-10.18,21.9-16.93l5.89,7.18c-13.99,12.76-22.95,20.5-26.87,23.19-7.85,5.4-15.34,9.39-22.46,11.96-4.67,1.72-9.2,2.58-13.62,2.58-3.19,0-5.59-.74-7.18-2.21-1.6-1.47-2.39-3.62-2.39-6.44,0-1.84,.49-4.35,1.47-7.55l7.36-25.03c-10.56,12.64-23.13,23.5-37.73,32.58-8.96,5.64-17.18,8.47-24.67,8.47s-12.58-2.52-16.38-7.55c-5.15-6.75-7.73-15.58-7.73-26.51,0-13.01,3.47-27.49,10.4-43.44,6.93-15.95,16.23-30.43,27.89-43.44,11.66-13.01,23.93-22.58,36.81-28.71,9.94-4.66,22.7-6.99,38.29-6.99,3.93,0,7.92,.25,11.96,.74l4.42-7.18Zm-22.82,28.16c-6.63-1.35-12.21-2.02-16.75-2.02-11.04,0-20.68,3.04-28.9,9.11-8.22,6.07-15.86,17-22.92,32.76-7.06,15.77-10.58,31.51-10.58,47.21,0,8.35,1.41,14.36,4.23,18.04,2.82,3.68,6.5,5.52,11.04,5.52,8.47,0,17.55-4.57,27.24-13.71,9.69-9.14,16.81-22.3,21.35-39.48l15.28-57.43Z"/>
    <path class="cls-1" d="M678.29,187.2l-6.26-6.44c15.72-15.04,28.25-25.03,37.58-29.97,9.33-4.93,17.32-7.4,23.95-7.4,2.58,0,4.6,.55,6.08,1.66s2.21,2.39,2.21,3.87c0,1.1-.31,3.07-.92,5.89l-8.3,37.04c12.49-13.88,28.17-26.84,47.04-38.88,10.05-6.26,18.31-9.4,24.81-9.4,4.78,0,8.51,1.54,11.21,4.6,2.69,3.07,4.04,7.49,4.04,13.25,0,3.81-.55,8.1-1.65,12.89-1.96,7.98-7.09,25.34-15.41,52.09-7.83,25.03-11.74,41.66-11.74,49.88,0,2.52,.37,4.4,1.1,5.66,.74,1.26,1.78,1.89,3.13,1.89,3.56,0,9.14-3.43,16.75-10.31,5.4-4.91,10.8-9.45,16.2-13.62l4.6,6.63c-11.29,12.46-23.01,22.47-35.16,30.04-7.73,4.88-14.11,7.33-19.14,7.33-4.66,0-8.28-1.69-10.86-5.06-2.58-3.37-3.87-8.86-3.87-16.47,0-10.92,6.81-38.1,20.43-81.54,4.17-15.46,6.26-24.48,6.26-27.06,0-3.8-2.27-5.71-6.81-5.71-4.91,0-11.23,2.58-18.96,7.74-11.54,7.62-21.17,16.59-28.9,26.91-4.91,6.64-9.02,17.21-12.33,31.7l-14.91,64.33h-27.43c5.15-18.43,9.63-36.07,13.44-52.9l16.38-70.04c.61-2.82,.92-4.85,.92-6.08,0-3.32-1.23-4.98-3.68-4.98-1.96,0-4.79,1.3-8.47,3.9-7.61,5.07-14.73,11.26-21.35,18.56Z"/>
  </g>
  <g>
    <path class="cls-2" d="M1133.36,311.47l-6.7-89.02c-1.36-18.15-2.04-30.1-2.04-35.86,0-16.6,2.36-31.88,7.1-45.83,4.73-13.95,13.12-28.93,25.17-44.91-14.34,0-28.95,3.44-43.84,10.33-14.89,6.89-25.79,14.82-32.72,23.79-6.92,8.97-10.38,18.01-10.38,27.11,0,4.18,1.26,8.61,3.78,13.28,3.24,5.9,4.87,10.39,4.87,13.46,0,2.83-.85,5.1-2.56,6.82s-3.9,2.58-6.57,2.58c-3.9,0-7.31-2.02-10.23-6.07-3.66-5.4-5.48-12.08-5.48-20.06,0-14.97,5.64-29.39,16.92-43.26,11.28-13.87,26.73-24.11,46.34-30.74,12.63-4.29,31.01-7.24,55.17-8.84,6.5-.49,13.12-1.1,19.86-1.84-16.59,24.3-27.4,44.58-32.44,60.83-5.04,16.26-7.56,38.32-7.56,66.17,0,21.36,1.1,40.88,3.32,58.56l35.39-37.75,30.23-30.94c30.47-31.29,50.99-55.96,61.55-74,7.98-13.62,11.98-26.01,11.98-37.18,0-6.13-1.41-12.88-4.23-20.25-1.84-4.66-2.76-8.22-2.76-10.68,0-3.31,1.26-6.2,3.77-8.65,2.51-2.45,5.49-3.68,8.93-3.68,4.66,0,8.59,2.39,11.78,7.18,3.19,4.79,4.79,12.27,4.79,22.46s-2.09,20.46-6.26,31.57c-4.18,11.11-12.96,25.25-26.35,42.43-13.39,17.18-34.08,39.94-62.09,68.29-29.33,29.67-58.91,61.23-88.72,94.7Z"/>
    <path class="cls-2" d="M1294.32,191.92l-8.1-6.26c12.25-13.5,23.44-23.1,33.55-28.81,10.11-5.71,18.72-8.56,25.83-8.56,3.92,0,6.93,.86,9.01,2.58,2.08,1.72,3.13,4.05,3.13,6.99,0,3.56-3.98,18.65-11.93,45.28-12.97,43.56-19.46,69.82-19.46,78.78,0,1.72,.43,3.16,1.29,4.33,.86,1.17,1.78,1.75,2.76,1.75,3.93,0,13.99-7.61,30.19-22.82l7.18,6.99c-16.81,15.83-29.08,25.95-36.81,30.37s-14.05,6.63-18.96,6.63c-4.3,0-7.7-1.35-10.22-4.05-2.52-2.7-3.77-6.44-3.77-11.23,0-15.34,9.2-52.83,27.61-112.47,.86-2.82,1.29-5.34,1.29-7.55,0-2.45-1.1-3.68-3.31-3.68-2.46,0-5.25,.98-8.38,2.95-3.13,1.96-10.09,8.22-20.89,18.77Zm72.34-121.85c3.8,0,6.93,1.26,9.39,3.77,2.45,2.52,3.68,5.74,3.68,9.66,0,5.4-1.87,10.16-5.61,14.27-3.75,4.11-7.95,6.17-12.61,6.17-3.68,0-6.75-1.29-9.2-3.87-2.46-2.58-3.68-5.95-3.68-10.12,0-5.52,1.78-10.22,5.34-14.08,3.56-3.87,7.79-5.8,12.7-5.8Z"/>
    <path class="cls-2" d="M1434.77,181.43c9.94-10.92,19.72-18.93,29.36-24.02,9.63-5.09,18.13-7.64,25.49-7.64,8.59,0,15.46,3.44,20.62,10.31,5.15,6.87,7.73,17.24,7.73,31.11,0,20.13-4.73,39.82-14.17,59.09-9.45,19.27-21.14,33.93-35.07,43.99-13.93,10.06-27.52,15.09-40.77,15.09-11.29,0-20.31-3.31-27.06-9.94-6.75-6.63-10.12-15.21-10.12-25.77,0-8.47,1.66-20.25,4.97-35.34l21.72-97.37c5.27-23.81,11.9-41.94,19.88-54.39,7.98-12.45,18.47-22.39,31.48-29.82,13.01-7.42,25.34-11.14,37-11.14,7,0,12.12,1.2,15.37,3.59,3.25,2.39,4.88,5.61,4.88,9.66,0,3.68-1.48,6.75-4.42,9.2-2.95,2.46-7.12,3.68-12.52,3.68-4.05,0-11.05-.92-20.99-2.76-4.42-.86-8.35-1.29-11.79-1.29-6.14,0-11.11,3.31-14.92,9.94-2.83,5.15-6.69,18.22-11.6,39.21l-15.06,64.61Zm36.26-11.23c-6.01,0-13.16,3.62-21.44,10.86-8.28,7.24-16.11,20.03-23.47,38.38-7.36,18.35-11.04,36.35-11.04,54.02,0,6.63,2.12,12.18,6.35,16.66,4.23,4.48,9.17,6.72,14.82,6.72,13.62,0,25.77-10.77,36.45-32.3,10.68-21.54,16.01-42.98,16.01-64.33,0-9.69-2.02-17.61-6.07-23.75-2.82-4.17-6.69-6.26-11.6-6.26Z"/>
    <path class="cls-2" d="M1633.56,257.82l6.07,8.1c-30.07,28.59-55.84,42.89-77.31,42.89-8.71,0-15.37-2.95-19.97-8.84-4.6-5.89-6.9-15.34-6.9-28.35,0-26.26,7.98-52.4,23.93-78.41,17.92-29.57,39.33-44.36,64.24-44.36,8.71,0,15.37,2.18,19.97,6.53,4.6,4.36,6.9,10.34,6.9,17.95s-2.76,15.83-8.28,23.56c-5.52,7.73-15.4,15.77-29.63,24.11-7.12,4.05-22.34,11.35-45.65,21.9-1.1,6.63-1.66,12.95-1.66,18.96,0,8.71,1.38,14.79,4.14,18.22,2.76,3.44,6.78,5.15,12.06,5.15s10.55-1.41,16.57-4.23c8.1-3.8,19.94-11.53,35.52-23.19Zm-64.42-26.69c19.76-8.84,34.61-18.34,44.54-28.53,6.75-7.12,10.12-14.17,10.12-21.17,0-5.27-1.38-9.48-4.14-12.61-2.76-3.13-6.35-4.69-10.77-4.69s-8.96,1.72-13.25,5.15c-5.77,4.54-10.62,11.41-14.54,20.62-5.65,13.5-9.63,27.24-11.96,41.23Z"/>
    <path class="cls-2" d="M1746.03,149.22c10.92,0,19.36,2.12,25.31,6.35,5.95,4.23,8.93,9.11,8.93,14.63,0,3.31-1.26,6.2-3.77,8.65-2.52,2.46-5.55,3.68-9.11,3.68-2.33,0-4.36-.52-6.07-1.56-1.72-1.04-4.17-3.65-7.36-7.82-6.01-7.98-11.96-11.96-17.85-11.96-5.03,0-9.48,1.93-13.34,5.79-3.87,3.86-5.8,8.67-5.8,14.43,0,5.03,1.23,9.9,3.68,14.62,2.45,4.72,8.65,12.35,18.59,22.89,13.62,14.46,20.43,28.19,20.43,41.18s-5.52,24.36-16.57,34.1c-11.04,9.74-25.28,14.61-42.7,14.61-14.6,0-25.46-2.98-32.58-8.93-7.12-5.95-10.68-13.28-10.68-22,0-4.29,1.35-7.85,4.05-10.68,2.7-2.82,6.01-4.23,9.94-4.23,3.43,0,6.38,1.14,8.84,3.4,2.45,2.27,3.68,4.94,3.68,8.01,0,1.23-.08,2.82-.24,4.79-.08,1.6-.12,2.95-.12,4.05,0,4.05,1.71,7.49,5.14,10.31,3.3,2.82,7.83,4.23,13.57,4.23,6.6,0,12.41-1.13,17.42-3.4,5.01-2.27,8.93-5.7,11.74-10.3,2.81-4.6,4.22-9.16,4.22-13.7s-1.32-8.82-3.96-13.24c-2.64-4.41-8.56-11.71-17.76-21.88-12.76-14.22-19.14-27.88-19.14-41,0-12.01,4.85-22.52,14.54-31.53,9.69-9.01,22.03-13.51,37-13.51Z"/>
  </g>
</svg>